<svg width="10" height="15" viewBox="0 0 10 15" fill="none" xmlns="http://www.w3.org/2000/svg">
<path d="M1.1 2.72C0.833333 2.78667 0.58 2.74 0.34 2.58C0.113333 2.40667 0 2.18 0 1.9V1.74C0 1.40667 0.106667 1.10667 0.32 0.84C0.533333 0.573333 0.8 0.413332 1.12 0.359999C2.36 0.119999 3.60667 0 4.86 0C6.47333 0 7.72 0.32 8.6 0.96C9.49333 1.58667 9.94 2.42 9.94 3.46C9.94 3.94 9.87333 4.37333 9.74 4.76C9.62 5.13333 9.42 5.47333 9.14 5.78C8.87333 6.08667 8.62667 6.32667 8.4 6.5C8.18667 6.67333 7.88667 6.89333 7.5 7.16C7.14 7.41333 6.86 7.61333 6.66 7.76C6.46 7.90667 6.24 8.11333 6 8.38C5.77333 8.64667 5.6 8.92667 5.48 9.22C5.18667 9.96667 4.74 10.34 4.14 10.34H3.74C3.42 10.34 3.15333 10.2267 2.94 10C2.72667 9.76 2.65333 9.49333 2.72 9.2C2.84 8.72 3.05333 8.26667 3.36 7.84C3.68 7.4 3.95333 7.08667 4.18 6.9C4.42 6.71333 4.78 6.44 5.26 6.08C5.67333 5.78667 5.97333 5.56 6.16 5.4C6.36 5.22667 6.54667 5 6.72 4.72C6.90667 4.42667 7 4.12 7 3.8C7 2.77333 6.15333 2.26 4.46 2.26C3.47333 2.26 2.35333 2.41333 1.1 2.72ZM3.6 12H4.26C4.56667 12 4.83333 12.1133 5.06 12.34C5.28667 12.5667 5.4 12.8333 5.4 13.14V13.66C5.4 13.9667 5.28667 14.2333 5.06 14.46C4.83333 14.6867 4.56667 14.8 4.26 14.8H3.6C3.29333 14.8 3.02667 14.6867 2.8 14.46C2.57333 14.2333 2.46 13.9667 2.46 13.66V13.14C2.46 12.8333 2.57333 12.5667 2.8 12.34C3.02667 12.1133 3.29333 12 3.6 12Z" fill="#3F4650"/>
</svg>
