<svg width="14" height="14" viewBox="0 0 14 14" fill="none" xmlns="http://www.w3.org/2000/svg">
<path d="M1.5493 2.57297C1.17371 2.63604 0.816902 2.59189 0.478873 2.44054C0.159625 2.27658 0 2.06216 0 1.7973V1.64594C0 1.33063 0.150235 1.04685 0.450704 0.794595C0.751174 0.542342 1.12676 0.39099 1.57746 0.340539C3.32394 0.113513 5.07981 0 6.84507 0C9.11737 0 10.8732 0.302703 12.1127 0.908108C13.3709 1.5009 14 2.28919 14 3.27297C14 3.72703 13.9061 4.13694 13.7183 4.5027C13.5493 4.85586 13.2676 5.17748 12.8732 5.46757C12.4977 5.75766 12.1502 5.98468 11.831 6.14865C11.5305 6.31261 11.108 6.52072 10.5634 6.77297C10.0563 7.01261 9.66197 7.2018 9.38028 7.34054C9.09859 7.47928 8.78873 7.67477 8.4507 7.92703C8.13146 8.17928 7.88732 8.44414 7.71831 8.72162C7.30516 9.42793 6.67606 9.78108 5.83099 9.78108H5.26761C4.8169 9.78108 4.44132 9.67387 4.14085 9.45946C3.84038 9.23243 3.73709 8.98018 3.83099 8.7027C4 8.24865 4.30047 7.81982 4.73239 7.41622C5.1831 7 5.56808 6.7036 5.88732 6.52703C6.22535 6.35045 6.73239 6.09189 7.40845 5.75135C7.99061 5.47387 8.41315 5.25946 8.67606 5.10811C8.95775 4.94414 9.22066 4.72973 9.46479 4.46486C9.7277 4.18739 9.85915 3.8973 9.85915 3.59459C9.85915 2.62342 8.66667 2.13784 6.28169 2.13784C4.89202 2.13784 3.31455 2.28288 1.5493 2.57297ZM5.07042 11.3514H6C6.43193 11.3514 6.80751 11.4586 7.12676 11.673C7.44601 11.8874 7.60563 12.1396 7.60563 12.4297V12.9216C7.60563 13.2117 7.44601 13.464 7.12676 13.6784C6.80751 13.8928 6.43193 14 6 14H5.07042C4.6385 14 4.26291 13.8928 3.94366 13.6784C3.62441 13.464 3.46479 13.2117 3.46479 12.9216V12.4297C3.46479 12.1396 3.62441 11.8874 3.94366 11.673C4.26291 11.4586 4.6385 11.3514 5.07042 11.3514Z" fill="#3F4650"/>
</svg>
