<svg width="219" height="51" viewBox="0 0 219 51" fill="none" xmlns="http://www.w3.org/2000/svg">
<path d="M20 28L7.5 49H0.5L16 22H50L62.5 0.5H71L54.5 28H20Z" fill="#3F4650"/>
<path d="M23 49.5H15.5L25 33.5H47L56 49.5H48L41.5 39H29.5L23 49.5Z" fill="#3F4650"/>
<path d="M55 0.5H48.5L43 10H28.5L22.5 0.5H15L24 15.5H46.5L55 0.5Z" fill="#3F4650"/>
<path d="M91.52 39V11H94.6V23.52H110.68V11H113.76V39H110.68V26.28H94.6V39H91.52Z" fill="#2E3B47"/>
<path d="M122.617 39V11H125.697V39H122.617Z" fill="#2E3B47"/>
<path d="M134.574 39V11H146.054C147.841 11 149.401 11.3467 150.734 12.04C152.067 12.7067 153.107 13.64 153.854 14.84C154.601 16.04 154.974 17.4533 154.974 19.08C154.974 20.9467 154.454 22.5467 153.414 23.88C152.374 25.1867 150.947 26.1067 149.134 26.64L155.094 39H151.694L146.014 27.04H137.654V39H134.574ZM137.654 24.48H145.814C147.654 24.48 149.121 24 150.214 23.04C151.334 22.0533 151.894 20.7467 151.894 19.12C151.894 17.4667 151.334 16.16 150.214 15.2C149.121 14.2133 147.654 13.72 145.814 13.72H137.654V24.48Z" fill="#2E3B47"/>
<path d="M159.463 39L170.543 11H174.223L185.143 39H181.823L178.503 30.2H166.023L162.703 39H159.463ZM166.983 27.76H177.583L172.263 13.8L166.983 27.76Z" fill="#2E3B47"/>
<path d="M190.869 39V11H195.149L204.509 30.92L213.869 11H218.149V39H215.229V14.64L204.509 37L193.749 14.56V39H190.869Z" fill="#2E3B47"/>
<path d="M91.666 49V44.608H92.323V49H91.666ZM91.999 43.519C91.867 43.519 91.753 43.474 91.657 43.384C91.567 43.288 91.522 43.177 91.522 43.051C91.522 42.925 91.567 42.817 91.657 42.727C91.753 42.631 91.867 42.583 91.999 42.583C92.131 42.583 92.242 42.631 92.332 42.727C92.428 42.817 92.476 42.925 92.476 43.051C92.476 43.177 92.428 43.288 92.332 43.384C92.242 43.474 92.131 43.519 91.999 43.519Z" fill="#3F4650"/>
<path d="M93.8501 49V44.608H94.5071V45.319C94.6751 45.055 94.8761 44.86 95.1101 44.734C95.3441 44.602 95.6081 44.536 95.9021 44.536C96.2201 44.536 96.4961 44.605 96.7301 44.743C96.9701 44.875 97.1561 45.064 97.2881 45.31C97.4261 45.55 97.4951 45.832 97.4951 46.156V49H96.8381V46.345C96.8381 45.955 96.7301 45.649 96.5141 45.427C96.3041 45.199 96.0191 45.085 95.6591 45.085C95.4191 45.085 95.2001 45.142 95.0021 45.256C94.8041 45.37 94.6391 45.538 94.5071 45.76V49H93.8501Z" fill="#3F4650"/>
<path d="M100.538 49.09C100.16 49.09 99.8721 49 99.6741 48.82C99.4821 48.634 99.3861 48.367 99.3861 48.019V45.148H98.4771V44.608H99.3861V43.402L100.043 43.249V44.608H101.303V45.148H100.043V47.848C100.043 48.082 100.091 48.25 100.187 48.352C100.289 48.454 100.454 48.505 100.682 48.505C100.796 48.505 100.898 48.496 100.988 48.478C101.078 48.46 101.183 48.43 101.303 48.388V48.973C101.183 49.015 101.057 49.045 100.925 49.063C100.793 49.081 100.664 49.09 100.538 49.09Z" fill="#3F4650"/>
<path d="M104.338 49.09C103.93 49.09 103.561 48.991 103.231 48.793C102.901 48.589 102.64 48.316 102.448 47.974C102.256 47.626 102.16 47.236 102.16 46.804C102.16 46.372 102.25 45.985 102.43 45.643C102.616 45.301 102.865 45.031 103.177 44.833C103.489 44.635 103.837 44.536 104.221 44.536C104.611 44.536 104.956 44.635 105.256 44.833C105.562 45.025 105.802 45.289 105.976 45.625C106.156 45.955 106.246 46.33 106.246 46.75V46.948H102.799C102.823 47.248 102.904 47.518 103.042 47.758C103.186 47.992 103.372 48.178 103.6 48.316C103.834 48.448 104.089 48.514 104.365 48.514C104.593 48.514 104.812 48.475 105.022 48.397C105.238 48.313 105.421 48.202 105.571 48.064L105.985 48.505C105.733 48.703 105.472 48.85 105.202 48.946C104.932 49.042 104.644 49.09 104.338 49.09ZM102.817 46.48H105.598C105.568 46.216 105.487 45.982 105.355 45.778C105.229 45.568 105.067 45.403 104.869 45.283C104.677 45.163 104.461 45.103 104.221 45.103C103.981 45.103 103.762 45.163 103.564 45.283C103.366 45.397 103.201 45.559 103.069 45.769C102.943 45.973 102.859 46.21 102.817 46.48Z" fill="#3F4650"/>
<path d="M107.547 49V42.502L108.204 42.367V49H107.547Z" fill="#3F4650"/>
<path d="M109.722 49V44.608H110.379V49H109.722ZM110.055 43.519C109.923 43.519 109.809 43.474 109.713 43.384C109.623 43.288 109.578 43.177 109.578 43.051C109.578 42.925 109.623 42.817 109.713 42.727C109.809 42.631 109.923 42.583 110.055 42.583C110.187 42.583 110.298 42.631 110.388 42.727C110.484 42.817 110.532 42.925 110.532 43.051C110.532 43.177 110.484 43.288 110.388 43.384C110.298 43.474 110.187 43.519 110.055 43.519Z" fill="#3F4650"/>
<path d="M113.94 50.971C113.646 50.971 113.349 50.929 113.049 50.845C112.755 50.767 112.482 50.656 112.23 50.512L112.509 50.008C112.779 50.146 113.025 50.248 113.247 50.314C113.469 50.38 113.691 50.413 113.913 50.413C114.315 50.413 114.618 50.317 114.822 50.125C115.032 49.933 115.137 49.654 115.137 49.288V48.406C114.969 48.616 114.765 48.778 114.525 48.892C114.285 49 114.021 49.054 113.733 49.054C113.355 49.054 113.013 48.955 112.707 48.757C112.401 48.553 112.158 48.283 111.978 47.947C111.798 47.605 111.708 47.224 111.708 46.804C111.708 46.384 111.798 46.006 111.978 45.67C112.164 45.328 112.413 45.058 112.725 44.86C113.037 44.656 113.385 44.554 113.769 44.554C114.045 44.554 114.3 44.608 114.534 44.716C114.768 44.818 114.972 44.971 115.146 45.175V44.608H115.794V49.279C115.794 49.825 115.635 50.242 115.317 50.53C114.999 50.824 114.54 50.971 113.94 50.971ZM113.895 48.487C114.153 48.487 114.39 48.436 114.606 48.334C114.822 48.226 114.999 48.079 115.137 47.893V45.724C114.993 45.538 114.81 45.394 114.588 45.292C114.372 45.184 114.141 45.13 113.895 45.13C113.601 45.13 113.337 45.202 113.103 45.346C112.875 45.49 112.692 45.688 112.554 45.94C112.422 46.192 112.356 46.48 112.356 46.804C112.356 47.122 112.422 47.41 112.554 47.668C112.692 47.92 112.875 48.121 113.103 48.271C113.337 48.415 113.601 48.487 113.895 48.487Z" fill="#3F4650"/>
<path d="M119.305 49.09C118.897 49.09 118.528 48.991 118.198 48.793C117.868 48.589 117.607 48.316 117.415 47.974C117.223 47.626 117.127 47.236 117.127 46.804C117.127 46.372 117.217 45.985 117.397 45.643C117.583 45.301 117.832 45.031 118.144 44.833C118.456 44.635 118.804 44.536 119.188 44.536C119.578 44.536 119.923 44.635 120.223 44.833C120.529 45.025 120.769 45.289 120.943 45.625C121.123 45.955 121.213 46.33 121.213 46.75V46.948H117.766C117.79 47.248 117.871 47.518 118.009 47.758C118.153 47.992 118.339 48.178 118.567 48.316C118.801 48.448 119.056 48.514 119.332 48.514C119.56 48.514 119.779 48.475 119.989 48.397C120.205 48.313 120.388 48.202 120.538 48.064L120.952 48.505C120.7 48.703 120.439 48.85 120.169 48.946C119.899 49.042 119.611 49.09 119.305 49.09ZM117.784 46.48H120.565C120.535 46.216 120.454 45.982 120.322 45.778C120.196 45.568 120.034 45.403 119.836 45.283C119.644 45.163 119.428 45.103 119.188 45.103C118.948 45.103 118.729 45.163 118.531 45.283C118.333 45.397 118.168 45.559 118.036 45.769C117.91 45.973 117.826 46.21 117.784 46.48ZM120.07 43.789L119.224 43.033L118.387 43.789H117.856L118.882 42.646H119.584L120.61 43.789H120.07Z" fill="#3F4650"/>
<path d="M122.514 49V44.608H123.171V45.319C123.339 45.055 123.54 44.86 123.774 44.734C124.008 44.602 124.272 44.536 124.566 44.536C124.884 44.536 125.16 44.605 125.394 44.743C125.634 44.875 125.82 45.064 125.952 45.31C126.09 45.55 126.159 45.832 126.159 46.156V49H125.502V46.345C125.502 45.955 125.394 45.649 125.178 45.427C124.968 45.199 124.683 45.085 124.323 45.085C124.083 45.085 123.864 45.142 123.666 45.256C123.468 45.37 123.303 45.538 123.171 45.76V49H122.514Z" fill="#3F4650"/>
<path d="M129.631 49.072C129.223 49.072 128.854 48.973 128.524 48.775C128.2 48.571 127.942 48.298 127.75 47.956C127.558 47.608 127.462 47.224 127.462 46.804C127.462 46.378 127.558 45.994 127.75 45.652C127.942 45.31 128.2 45.04 128.524 44.842C128.854 44.638 129.223 44.536 129.631 44.536C129.955 44.536 130.264 44.596 130.558 44.716C130.852 44.836 131.107 45.004 131.323 45.22L130.9 45.679C130.744 45.505 130.555 45.37 130.333 45.274C130.111 45.178 129.886 45.13 129.658 45.13C129.37 45.13 129.109 45.205 128.875 45.355C128.647 45.505 128.464 45.706 128.326 45.958C128.188 46.21 128.119 46.492 128.119 46.804C128.119 47.116 128.188 47.398 128.326 47.65C128.464 47.902 128.647 48.103 128.875 48.253C129.109 48.403 129.37 48.478 129.658 48.478C129.886 48.478 130.111 48.43 130.333 48.334C130.555 48.232 130.744 48.097 130.9 47.929L131.323 48.388C131.107 48.604 130.852 48.772 130.558 48.892C130.264 49.012 129.955 49.072 129.631 49.072Z" fill="#3F4650"/>
<path d="M132.41 49V44.608H133.067V49H132.41ZM132.743 43.519C132.611 43.519 132.497 43.474 132.401 43.384C132.311 43.288 132.266 43.177 132.266 43.051C132.266 42.925 132.311 42.817 132.401 42.727C132.497 42.631 132.611 42.583 132.743 42.583C132.875 42.583 132.986 42.631 133.076 42.727C133.172 42.817 133.22 42.925 133.22 43.051C133.22 43.177 133.172 43.288 133.076 43.384C132.986 43.474 132.875 43.519 132.743 43.519Z" fill="#3F4650"/>
<path d="M135.953 49.081C135.641 49.081 135.365 49.024 135.125 48.91C134.885 48.796 134.696 48.64 134.558 48.442C134.426 48.238 134.36 48.004 134.36 47.74C134.36 47.476 134.429 47.248 134.567 47.056C134.705 46.858 134.897 46.705 135.143 46.597C135.389 46.489 135.677 46.435 136.007 46.435C136.259 46.435 136.496 46.462 136.718 46.516C136.946 46.57 137.156 46.657 137.348 46.777V46.174C137.348 45.814 137.252 45.544 137.06 45.364C136.868 45.178 136.586 45.085 136.214 45.085C136.01 45.085 135.8 45.115 135.584 45.175C135.374 45.235 135.14 45.331 134.882 45.463L134.639 44.959C135.227 44.677 135.779 44.536 136.295 44.536C136.841 44.536 137.261 44.671 137.555 44.941C137.849 45.205 137.996 45.586 137.996 46.084V49H137.348V48.487C137.156 48.685 136.943 48.835 136.709 48.937C136.475 49.033 136.223 49.081 135.953 49.081ZM134.99 47.722C134.99 47.98 135.089 48.187 135.287 48.343C135.491 48.499 135.758 48.577 136.088 48.577C136.334 48.577 136.559 48.535 136.763 48.451C136.973 48.367 137.168 48.241 137.348 48.073V47.227C137.162 47.119 136.97 47.041 136.772 46.993C136.574 46.939 136.352 46.912 136.106 46.912C135.77 46.912 135.5 46.987 135.296 47.137C135.092 47.281 134.99 47.476 134.99 47.722Z" fill="#3F4650"/>
<path d="M143.772 49.09C143.364 49.09 142.995 48.991 142.665 48.793C142.335 48.589 142.074 48.316 141.882 47.974C141.69 47.626 141.594 47.236 141.594 46.804C141.594 46.372 141.684 45.985 141.864 45.643C142.05 45.301 142.299 45.031 142.611 44.833C142.923 44.635 143.271 44.536 143.655 44.536C144.045 44.536 144.39 44.635 144.69 44.833C144.996 45.025 145.236 45.289 145.41 45.625C145.59 45.955 145.68 46.33 145.68 46.75V46.948H142.233C142.257 47.248 142.338 47.518 142.476 47.758C142.62 47.992 142.806 48.178 143.034 48.316C143.268 48.448 143.523 48.514 143.799 48.514C144.027 48.514 144.246 48.475 144.456 48.397C144.672 48.313 144.855 48.202 145.005 48.064L145.419 48.505C145.167 48.703 144.906 48.85 144.636 48.946C144.366 49.042 144.078 49.09 143.772 49.09ZM142.251 46.48H145.032C145.002 46.216 144.921 45.982 144.789 45.778C144.663 45.568 144.501 45.403 144.303 45.283C144.111 45.163 143.895 45.103 143.655 45.103C143.415 45.103 143.196 45.163 142.998 45.283C142.8 45.397 142.635 45.559 142.503 45.769C142.377 45.973 142.293 46.21 142.251 46.48Z" fill="#3F4650"/>
<path d="M149.263 49V44.608H149.92V45.319C150.088 45.055 150.289 44.86 150.523 44.734C150.757 44.602 151.021 44.536 151.315 44.536C151.633 44.536 151.909 44.605 152.143 44.743C152.383 44.875 152.569 45.064 152.701 45.31C152.839 45.55 152.908 45.832 152.908 46.156V49H152.251V46.345C152.251 45.955 152.143 45.649 151.927 45.427C151.717 45.199 151.432 45.085 151.072 45.085C150.832 45.085 150.613 45.142 150.415 45.256C150.217 45.37 150.052 45.538 149.92 45.76V49H149.263Z" fill="#3F4650"/>
<path d="M156.389 49.09C155.981 49.09 155.612 48.991 155.282 48.793C154.952 48.589 154.691 48.316 154.499 47.974C154.307 47.626 154.211 47.236 154.211 46.804C154.211 46.372 154.301 45.985 154.481 45.643C154.667 45.301 154.916 45.031 155.228 44.833C155.54 44.635 155.888 44.536 156.272 44.536C156.662 44.536 157.007 44.635 157.307 44.833C157.613 45.025 157.853 45.289 158.027 45.625C158.207 45.955 158.297 46.33 158.297 46.75V46.948H154.85C154.874 47.248 154.955 47.518 155.093 47.758C155.237 47.992 155.423 48.178 155.651 48.316C155.885 48.448 156.14 48.514 156.416 48.514C156.644 48.514 156.863 48.475 157.073 48.397C157.289 48.313 157.472 48.202 157.622 48.064L158.036 48.505C157.784 48.703 157.523 48.85 157.253 48.946C156.983 49.042 156.695 49.09 156.389 49.09ZM154.868 46.48H157.649C157.619 46.216 157.538 45.982 157.406 45.778C157.28 45.568 157.118 45.403 156.92 45.283C156.728 45.163 156.512 45.103 156.272 45.103C156.032 45.103 155.813 45.163 155.615 45.283C155.417 45.397 155.252 45.559 155.12 45.769C154.994 45.973 154.91 46.21 154.868 46.48Z" fill="#3F4650"/>
<path d="M161.632 50.971C161.338 50.971 161.041 50.929 160.741 50.845C160.447 50.767 160.174 50.656 159.922 50.512L160.201 50.008C160.471 50.146 160.717 50.248 160.939 50.314C161.161 50.38 161.383 50.413 161.605 50.413C162.007 50.413 162.31 50.317 162.514 50.125C162.724 49.933 162.829 49.654 162.829 49.288V48.406C162.661 48.616 162.457 48.778 162.217 48.892C161.977 49 161.713 49.054 161.425 49.054C161.047 49.054 160.705 48.955 160.399 48.757C160.093 48.553 159.85 48.283 159.67 47.947C159.49 47.605 159.4 47.224 159.4 46.804C159.4 46.384 159.49 46.006 159.67 45.67C159.856 45.328 160.105 45.058 160.417 44.86C160.729 44.656 161.077 44.554 161.461 44.554C161.737 44.554 161.992 44.608 162.226 44.716C162.46 44.818 162.664 44.971 162.838 45.175V44.608H163.486V49.279C163.486 49.825 163.327 50.242 163.009 50.53C162.691 50.824 162.232 50.971 161.632 50.971ZM161.587 48.487C161.845 48.487 162.082 48.436 162.298 48.334C162.514 48.226 162.691 48.079 162.829 47.893V45.724C162.685 45.538 162.502 45.394 162.28 45.292C162.064 45.184 161.833 45.13 161.587 45.13C161.293 45.13 161.029 45.202 160.795 45.346C160.567 45.49 160.384 45.688 160.246 45.94C160.114 46.192 160.048 46.48 160.048 46.804C160.048 47.122 160.114 47.41 160.246 47.668C160.384 47.92 160.567 48.121 160.795 48.271C161.029 48.415 161.293 48.487 161.587 48.487Z" fill="#3F4650"/>
<path d="M166.961 49.072C166.553 49.072 166.187 48.973 165.863 48.775C165.539 48.577 165.284 48.307 165.098 47.965C164.912 47.623 164.819 47.236 164.819 46.804C164.819 46.372 164.912 45.985 165.098 45.643C165.284 45.301 165.539 45.031 165.863 44.833C166.187 44.635 166.553 44.536 166.961 44.536C167.363 44.536 167.723 44.635 168.041 44.833C168.365 45.031 168.62 45.301 168.806 45.643C168.992 45.985 169.085 46.372 169.085 46.804C169.085 47.236 168.992 47.623 168.806 47.965C168.62 48.307 168.365 48.577 168.041 48.775C167.723 48.973 167.363 49.072 166.961 49.072ZM166.952 48.496C167.24 48.496 167.495 48.424 167.717 48.28C167.939 48.13 168.113 47.926 168.239 47.668C168.371 47.41 168.437 47.122 168.437 46.804C168.437 46.48 168.371 46.192 168.239 45.94C168.113 45.682 167.939 45.481 167.717 45.337C167.495 45.187 167.24 45.112 166.952 45.112C166.664 45.112 166.409 45.187 166.187 45.337C165.965 45.481 165.788 45.682 165.656 45.94C165.53 46.192 165.467 46.48 165.467 46.804C165.467 47.122 165.53 47.41 165.656 47.668C165.788 47.926 165.965 48.13 166.187 48.28C166.409 48.424 166.664 48.496 166.952 48.496ZM166.376 43.744L167.384 42.646H168.275L166.979 43.744H166.376Z" fill="#3F4650"/>
<path d="M172.388 49.072C171.98 49.072 171.611 48.973 171.281 48.775C170.957 48.571 170.699 48.298 170.507 47.956C170.315 47.608 170.219 47.224 170.219 46.804C170.219 46.378 170.315 45.994 170.507 45.652C170.699 45.31 170.957 45.04 171.281 44.842C171.611 44.638 171.98 44.536 172.388 44.536C172.712 44.536 173.021 44.596 173.315 44.716C173.609 44.836 173.864 45.004 174.08 45.22L173.657 45.679C173.501 45.505 173.312 45.37 173.09 45.274C172.868 45.178 172.643 45.13 172.415 45.13C172.127 45.13 171.866 45.205 171.632 45.355C171.404 45.505 171.221 45.706 171.083 45.958C170.945 46.21 170.876 46.492 170.876 46.804C170.876 47.116 170.945 47.398 171.083 47.65C171.221 47.902 171.404 48.103 171.632 48.253C171.866 48.403 172.127 48.478 172.415 48.478C172.643 48.478 172.868 48.43 173.09 48.334C173.312 48.232 173.501 48.097 173.657 47.929L174.08 48.388C173.864 48.604 173.609 48.772 173.315 48.892C173.021 49.012 172.712 49.072 172.388 49.072Z" fill="#3F4650"/>
<path d="M175.167 49V44.608H175.824V49H175.167ZM175.5 43.519C175.368 43.519 175.254 43.474 175.158 43.384C175.068 43.288 175.023 43.177 175.023 43.051C175.023 42.925 175.068 42.817 175.158 42.727C175.254 42.631 175.368 42.583 175.5 42.583C175.632 42.583 175.743 42.631 175.833 42.727C175.929 42.817 175.977 42.925 175.977 43.051C175.977 43.177 175.929 43.288 175.833 43.384C175.743 43.474 175.632 43.519 175.5 43.519Z" fill="#3F4650"/>
<path d="M179.296 49.072C178.888 49.072 178.522 48.973 178.198 48.775C177.874 48.577 177.618 48.307 177.432 47.965C177.246 47.623 177.154 47.236 177.154 46.804C177.154 46.372 177.246 45.985 177.432 45.643C177.618 45.301 177.874 45.031 178.198 44.833C178.522 44.635 178.888 44.536 179.296 44.536C179.698 44.536 180.058 44.635 180.376 44.833C180.7 45.031 180.955 45.301 181.141 45.643C181.326 45.985 181.419 46.372 181.419 46.804C181.419 47.236 181.326 47.623 181.141 47.965C180.955 48.307 180.7 48.577 180.376 48.775C180.058 48.973 179.698 49.072 179.296 49.072ZM179.286 48.496C179.575 48.496 179.83 48.424 180.052 48.28C180.274 48.13 180.448 47.926 180.574 47.668C180.705 47.41 180.771 47.122 180.771 46.804C180.771 46.48 180.705 46.192 180.574 45.94C180.448 45.682 180.274 45.481 180.052 45.337C179.83 45.187 179.575 45.112 179.286 45.112C178.998 45.112 178.743 45.187 178.521 45.337C178.299 45.481 178.123 45.682 177.991 45.94C177.865 46.192 177.802 46.48 177.802 46.804C177.802 47.122 177.865 47.41 177.991 47.668C178.123 47.926 178.299 48.13 178.521 48.28C178.743 48.424 178.998 48.496 179.286 48.496Z" fill="#3F4650"/>
<path d="M184.111 49.09C183.751 49.09 183.418 49.036 183.112 48.928C182.806 48.814 182.545 48.652 182.329 48.442L182.68 48.01C182.944 48.202 183.187 48.343 183.409 48.433C183.631 48.517 183.859 48.559 184.093 48.559C184.411 48.559 184.675 48.484 184.885 48.334C185.095 48.184 185.2 47.992 185.2 47.758C185.2 47.578 185.137 47.437 185.011 47.335C184.891 47.233 184.69 47.155 184.408 47.101L183.688 46.975C183.262 46.897 182.947 46.765 182.743 46.579C182.545 46.393 182.446 46.141 182.446 45.823C182.446 45.571 182.512 45.349 182.644 45.157C182.782 44.965 182.971 44.815 183.211 44.707C183.451 44.593 183.724 44.536 184.03 44.536C184.33 44.536 184.615 44.581 184.885 44.671C185.155 44.755 185.428 44.893 185.704 45.085L185.38 45.544C185.152 45.382 184.924 45.265 184.696 45.193C184.468 45.115 184.237 45.076 184.003 45.076C183.715 45.076 183.484 45.139 183.31 45.265C183.136 45.391 183.049 45.562 183.049 45.778C183.049 45.958 183.103 46.096 183.211 46.192C183.325 46.288 183.523 46.36 183.805 46.408L184.543 46.543C184.987 46.621 185.311 46.756 185.515 46.948C185.719 47.14 185.821 47.398 185.821 47.722C185.821 47.98 185.746 48.214 185.596 48.424C185.446 48.628 185.242 48.79 184.984 48.91C184.726 49.03 184.435 49.09 184.111 49.09Z" fill="#3F4650"/>
</svg>
