<svg width="14" height="14" viewBox="0 0 14 14" fill="none" xmlns="http://www.w3.org/2000/svg">
<path d="M13.8034 12.8197V12.8197C12.3275 11.3547 12.3657 8.97195 12.5639 6.90185C12.5992 6.53274 12.6021 6.1589 12.5713 5.7845C12.4393 4.17843 11.6974 2.68402 10.4983 1.60855C9.29906 0.533073 7.7337 -0.0417195 6.12404 0.00236006C4.51437 0.0464396 2.98276 0.70604 1.84413 1.84553C0.705504 2.98503 0.0464044 4.5178 0.00235827 6.12869C-0.0416878 7.73957 0.532668 9.30612 1.60733 10.5062C2.68198 11.7063 4.17526 12.4488 5.7801 12.5809C6.15859 12.612 6.5365 12.6087 6.90953 12.5721C8.97214 12.3701 11.3451 12.3269 12.81 13.7929V13.7929C12.8751 13.8585 12.9524 13.9106 13.0377 13.9462C13.1229 13.9817 13.2144 14 13.3067 14C13.3991 14 13.4905 13.9817 13.5758 13.9462C13.661 13.9106 13.7384 13.8585 13.8034 13.7929C13.9295 13.6624 14 13.4879 14 13.3063C14 13.1248 13.9295 12.9503 13.8034 12.8197ZM6.31088 11.2165C5.34233 11.2165 4.39552 10.9291 3.5902 10.3905C2.78488 9.85204 2.15721 9.08664 1.78656 8.19113C1.41591 7.29563 1.31893 6.31024 1.50789 5.35957C1.69684 4.40891 2.16324 3.53567 2.84811 2.85028C3.53298 2.16489 4.40556 1.69813 5.3555 1.50903C6.30545 1.31993 7.29009 1.41699 8.18491 1.78792C9.07974 2.15885 9.84456 2.787 10.3827 3.59293C10.9208 4.39886 11.208 5.34638 11.208 6.31567C11.208 7.61545 10.692 8.86199 9.77364 9.78107C8.85526 10.7001 7.60967 11.2165 6.31088 11.2165Z" fill="#3F4650"/>
</svg>
