<svg width="14" height="14" viewBox="0 0 14 14" fill="none" xmlns="http://www.w3.org/2000/svg">
<path d="M13.3294 12.3795C11.9042 10.9648 11.9411 8.66385 12.1324 6.66484C12.1665 6.3084 12.1693 5.9474 12.1396 5.58585C12.0121 4.03494 11.2957 2.59185 10.1377 1.55331C8.97972 0.514767 7.46812 -0.0402868 5.91373 0.00227902C4.35935 0.0448449 2.88033 0.681794 1.7808 1.78216C0.681277 2.88252 0.0448108 4.36266 0.00227729 5.91823C-0.0402562 7.47379 0.514376 8.98655 1.55213 10.1454C2.58988 11.3043 4.03188 12.0213 5.58161 12.1488C5.9471 12.1789 6.31203 12.1757 6.67225 12.1404C8.66403 11.9453 10.9555 11.9036 12.3701 13.3193C12.4329 13.3826 12.5076 13.4329 12.59 13.4672C12.6723 13.5016 12.7606 13.5192 12.8498 13.5192C12.9389 13.5192 13.0272 13.5016 13.1096 13.4672C13.1919 13.4329 13.2666 13.3826 13.3294 13.3193C13.4512 13.1932 13.5192 13.0247 13.5192 12.8494C13.5192 12.674 13.4512 12.5056 13.3294 12.3795ZM6.09416 10.8313C5.15887 10.8313 4.24458 10.5537 3.46691 10.0337C2.68925 9.51371 2.08313 8.7746 1.72521 7.90984C1.36729 7.04509 1.27364 6.09354 1.4561 5.17552C1.63857 4.2575 2.08896 3.41425 2.75031 2.7524C3.41166 2.09054 4.25427 1.63982 5.17159 1.45721C6.08891 1.27461 7.03974 1.36832 7.90384 1.72652C8.76794 2.08471 9.50649 2.69129 10.0261 3.46955C10.5457 4.2478 10.8231 5.16279 10.8231 6.09879C10.8231 7.35393 10.3249 8.55766 9.43801 9.44518C8.55117 10.3327 7.34835 10.8313 6.09416 10.8313Z" fill="#3F4650"/>
</svg>
