<svg width="40" height="40" viewBox="0 0 40 40" fill="none" xmlns="http://www.w3.org/2000/svg">
<path d="M40 20C40 31.0457 31.0457 40 20 40C8.9543 40 0 31.0457 0 20C0 8.9543 8.9543 0 20 0C31.0457 0 40 8.9543 40 20Z" fill="#3F4650"/>
<path d="M28 14C28 18.4183 24.4183 22 20 22C15.5817 22 12 18.4183 12 14C12 9.58172 15.5817 6 20 6C24.4183 6 28 9.58172 28 14Z" fill="#D9D9D9"/>
<path d="M32 26C32 32.6274 26.6274 36 20 36C13.3726 36 8 32.6274 8 26C8 19.3726 12 22 20 24C28 22 32 19.3726 32 26Z" fill="#D9D9D9"/>
</svg>
