<svg width="4" height="5" viewBox="0 0 4 5" fill="none" xmlns="http://www.w3.org/2000/svg">
<path d="M3 4.11765C3 4.60496 2.55228 5 2 5C1.44772 5 1 4.60496 1 4.11765C1.66667 3.67647 1.66667 3.67647 2 3.67647C2.33333 3.67647 2.33333 3.67647 3 4.11765Z" fill="#3F4650"/>
<path fill-rule="evenodd" clip-rule="evenodd" d="M2.33172 0.323253C2.33279 0.313669 2.33333 0.30395 2.33333 0.294118C2.33333 0.131681 2.18409 0 2 0C1.81591 0 1.66667 0.131681 1.66667 0.294118C1.66667 0.30395 1.66721 0.313669 1.66828 0.323253C0.942069 0.452661 0.386954 0.998629 0.336999 1.6664C0.124142 1.94686 0 2.28417 0 2.64707C0 2.87445 0.0487382 3.09178 0.137499 3.29139C0.0541712 3.34485 0 3.43155 0 3.52942C0 3.69186 0.149238 3.82354 0.333333 3.82354H0.509262C1 4.41177 1.40767 3.52941 2 3.52941C2.59233 3.52941 3 4.41177 3.49074 3.82354H3.66667C3.85076 3.82354 4 3.69186 4 3.52942C4 3.43155 3.94583 3.34485 3.8625 3.29139C3.95126 3.09179 4 2.87445 4 2.64707C4 2.28417 3.87586 1.94686 3.663 1.6664C3.61305 0.998629 3.05793 0.452661 2.33172 0.323253Z" fill="#3F4650"/>
</svg>
